<svg height="100" viewBox="0 0 100 100" width="100" xmlns="http://www.w3.org/2000/svg"><path d="m31 82c-6.617 0-12-5.383-12-12v-39c0-6.617 5.383-12 12-12h39c6.617 0 12 5.383 12 12v39c0 6.617-5.383 12-12 12z" fill="#75849d"/><path d="m82.5 40.5-5 4-4 8.107-4-7.107-4 3-3.135-7.054-.865.169-.715-.117-3.223 9.002-3.034 1.065-4.028 5.935-4-2-4-10-4 7.933-4-1.933-4 5-3 1.129-4-2.129-4-1-.416 16.124 2.124 6.623 4.999 3.753 4.153 1 41.511-.101 4.854-1.618 4.275-5.208 1.034-6.017z" fill="#bdc4d6"/><path d="m62.336 41.425 3.164 7.118 4-3 4 7.107 4-8.107 5-4" fill="none" stroke="#1f212b" stroke-linecap="round" stroke-linejoin="round" stroke-miterlimit="10"/><path d="m19.5 54.5 4 1 4 2.129 3-1.129 4-5 4 1.933 4-7.933 4 10 4 2 4.028-5.935 3.034-1.065 3.223-9.002" fill="none" stroke="#1f212b" stroke-linecap="round" stroke-linejoin="round" stroke-miterlimit="10"/><path d="m70 83h-39c-7.18 0-13-5.82-13-13v-39c0-7.18 5.82-13 13-13h39c7.18 0 13 5.82 13 13v39c0 7.18-5.821 13-13 13zm-50-52v39c0 6.075 4.925 11 11 11h39c6.075 0 11-4.925 11-11v-39c0-6.075-4.925-11-11-11h-39c-6.076 0-11 4.925-11 11z" fill="#1f212b"/><g fill="none" stroke="#1f212b" stroke-linecap="round" stroke-linejoin="round" stroke-miterlimit="10"><path d="m27.5 41.5v40"/><path d="m27.5 32.5v4"/><path d="m27.5 19.5v10"/><path d="m38.5 73.5v8.5"/><path d="m38.5 20v49.5"/><path d="m50.5 69.5v4"/><path d="m50.5 33.5v33"/><path d="m50.5 28.5v2"/></g><path d="m61.5 81.5c-.552 0-1-.449-1-1v-60.25c0-.551.448-1 1-1s1 .449 1 1v60.25c0 .552-.448 1-1 1z" fill="#39c2d8"/><path d="m62 20v61h-1v-61m.5-1.25c-.827 0-1.5-.327-1.5.5v62c0 .827.673 1.5 1.5 1.5s1.5-.673 1.5-1.5v-62c0-.827-.673-.5-1.5-.5z" fill="#1f212b"/><path d="m64.5 38.5c0 1.367-.914 2.52-2.164 2.882-.265.077-.546.118-.836.118-1.657 0-3-1.343-3-3s1.343-3 3-3 3 1.343 3 3z" fill="#39c2d8"/><path d="m73.5 39.5v42.5" fill="none" stroke="#1f212b" stroke-linecap="round" stroke-linejoin="round" stroke-miterlimit="10"/><path d="m73.5 32.5v3" fill="none" stroke="#1f212b" stroke-linecap="round" stroke-linejoin="round" stroke-miterlimit="10"/><path d="m73.5 20v9.5" fill="none" stroke="#1f212b" stroke-linecap="round" stroke-linejoin="round" stroke-miterlimit="10"/><path d="m64.5 38.5c0 1.367-.914 2.52-2.164 2.882-.265.077-.546.118-.836.118-1.657 0-3-1.343-3-3s1.343-3 3-3 3 1.343 3 3z" fill="none" stroke="#1f212b" stroke-linecap="round" stroke-linejoin="round" stroke-miterlimit="10"/><path d="m50.5 77.5v4.5" fill="none" stroke="#1f212b" stroke-linecap="round" stroke-linejoin="round" stroke-miterlimit="10"/><path d="m50.5 20v4.5" fill="none" stroke="#1f212b" stroke-linecap="round" stroke-linejoin="round" stroke-miterlimit="10"/></svg>